<mxfile host="Electron" modified="2024-01-09T11:54:54.431Z" agent="Mozilla/5.0 (Windows NT 10.0; Win64; x64) AppleWebKit/537.36 (KHTML, like Gecko) draw.io/22.1.2 Chrome/114.0.5735.289 Electron/25.9.4 Safari/537.36" etag="Bg4s2NaZuvUIF9_9zTE2" version="22.1.2" type="device">
  <diagram name="Pagina-1" id="KrAMYKN802Sa1sQlcGRf">
    <mxGraphModel dx="977" dy="564" grid="1" gridSize="10" guides="1" tooltips="1" connect="1" arrows="1" fold="1" page="1" pageScale="1" pageWidth="827" pageHeight="1169" math="0" shadow="0">
      <root>
        <mxCell id="0" />
        <mxCell id="1" parent="0" />
        <mxCell id="X-2cT9AtNMiIcICBBnYA-75" value="" style="rounded=0;whiteSpace=wrap;html=1;strokeColor=none;" parent="1" vertex="1">
          <mxGeometry x="200" y="294" width="640" height="366" as="geometry" />
        </mxCell>
        <mxCell id="X-2cT9AtNMiIcICBBnYA-1" value="" style="endArrow=classic;html=1;rounded=0;" parent="1" edge="1">
          <mxGeometry width="50" height="50" relative="1" as="geometry">
            <mxPoint x="320" y="360" as="sourcePoint" />
            <mxPoint x="730" y="360" as="targetPoint" />
          </mxGeometry>
        </mxCell>
        <mxCell id="X-2cT9AtNMiIcICBBnYA-3" value="1" style="rhombus;whiteSpace=wrap;html=1;" parent="1" vertex="1">
          <mxGeometry x="340" y="310" width="40" height="40" as="geometry" />
        </mxCell>
        <mxCell id="X-2cT9AtNMiIcICBBnYA-4" value="2" style="rhombus;whiteSpace=wrap;html=1;" parent="1" vertex="1">
          <mxGeometry x="420" y="310" width="40" height="40" as="geometry" />
        </mxCell>
        <mxCell id="X-2cT9AtNMiIcICBBnYA-5" value="3" style="rhombus;whiteSpace=wrap;html=1;" parent="1" vertex="1">
          <mxGeometry x="500" y="310" width="40" height="40" as="geometry" />
        </mxCell>
        <mxCell id="X-2cT9AtNMiIcICBBnYA-6" value="4" style="rhombus;whiteSpace=wrap;html=1;" parent="1" vertex="1">
          <mxGeometry x="580" y="310" width="40" height="40" as="geometry" />
        </mxCell>
        <mxCell id="X-2cT9AtNMiIcICBBnYA-7" value="5" style="rhombus;whiteSpace=wrap;html=1;" parent="1" vertex="1">
          <mxGeometry x="660" y="310" width="40" height="40" as="geometry" />
        </mxCell>
        <mxCell id="X-2cT9AtNMiIcICBBnYA-8" value="" style="endArrow=classic;html=1;rounded=0;" parent="1" edge="1">
          <mxGeometry width="50" height="50" relative="1" as="geometry">
            <mxPoint x="320" y="520" as="sourcePoint" />
            <mxPoint x="730" y="520" as="targetPoint" />
          </mxGeometry>
        </mxCell>
        <mxCell id="X-2cT9AtNMiIcICBBnYA-26" value="" style="endArrow=none;html=1;rounded=0;" parent="1" edge="1">
          <mxGeometry width="50" height="50" relative="1" as="geometry">
            <mxPoint x="359.9" y="364" as="sourcePoint" />
            <mxPoint x="359.9" y="356" as="targetPoint" />
          </mxGeometry>
        </mxCell>
        <mxCell id="X-2cT9AtNMiIcICBBnYA-27" value="" style="endArrow=none;html=1;rounded=0;" parent="1" edge="1">
          <mxGeometry width="50" height="50" relative="1" as="geometry">
            <mxPoint x="439.9" y="364" as="sourcePoint" />
            <mxPoint x="439.9" y="356" as="targetPoint" />
          </mxGeometry>
        </mxCell>
        <mxCell id="X-2cT9AtNMiIcICBBnYA-28" value="" style="endArrow=none;html=1;rounded=0;" parent="1" edge="1">
          <mxGeometry width="50" height="50" relative="1" as="geometry">
            <mxPoint x="519.9" y="364" as="sourcePoint" />
            <mxPoint x="519.9" y="356" as="targetPoint" />
          </mxGeometry>
        </mxCell>
        <mxCell id="X-2cT9AtNMiIcICBBnYA-29" value="" style="endArrow=none;html=1;rounded=0;" parent="1" edge="1">
          <mxGeometry width="50" height="50" relative="1" as="geometry">
            <mxPoint x="599.9" y="364" as="sourcePoint" />
            <mxPoint x="599.9" y="356" as="targetPoint" />
          </mxGeometry>
        </mxCell>
        <mxCell id="X-2cT9AtNMiIcICBBnYA-30" value="" style="endArrow=none;html=1;rounded=0;" parent="1" edge="1">
          <mxGeometry width="50" height="50" relative="1" as="geometry">
            <mxPoint x="679.9" y="364" as="sourcePoint" />
            <mxPoint x="679.9" y="356" as="targetPoint" />
          </mxGeometry>
        </mxCell>
        <mxCell id="X-2cT9AtNMiIcICBBnYA-31" value="" style="endArrow=none;html=1;rounded=0;" parent="1" edge="1">
          <mxGeometry width="50" height="50" relative="1" as="geometry">
            <mxPoint x="359.92999999999995" y="524" as="sourcePoint" />
            <mxPoint x="359.92999999999995" y="516" as="targetPoint" />
          </mxGeometry>
        </mxCell>
        <mxCell id="X-2cT9AtNMiIcICBBnYA-32" value="" style="endArrow=none;html=1;rounded=0;" parent="1" edge="1">
          <mxGeometry width="50" height="50" relative="1" as="geometry">
            <mxPoint x="439.92999999999995" y="524" as="sourcePoint" />
            <mxPoint x="439.92999999999995" y="516" as="targetPoint" />
          </mxGeometry>
        </mxCell>
        <mxCell id="X-2cT9AtNMiIcICBBnYA-33" value="" style="endArrow=none;html=1;rounded=0;" parent="1" edge="1">
          <mxGeometry width="50" height="50" relative="1" as="geometry">
            <mxPoint x="519.93" y="524" as="sourcePoint" />
            <mxPoint x="519.93" y="516" as="targetPoint" />
          </mxGeometry>
        </mxCell>
        <mxCell id="X-2cT9AtNMiIcICBBnYA-34" value="" style="endArrow=none;html=1;rounded=0;" parent="1" edge="1">
          <mxGeometry width="50" height="50" relative="1" as="geometry">
            <mxPoint x="599.93" y="524" as="sourcePoint" />
            <mxPoint x="599.93" y="516" as="targetPoint" />
          </mxGeometry>
        </mxCell>
        <mxCell id="X-2cT9AtNMiIcICBBnYA-35" value="" style="endArrow=none;html=1;rounded=0;" parent="1" edge="1">
          <mxGeometry width="50" height="50" relative="1" as="geometry">
            <mxPoint x="679.93" y="524" as="sourcePoint" />
            <mxPoint x="679.93" y="516" as="targetPoint" />
          </mxGeometry>
        </mxCell>
        <mxCell id="X-2cT9AtNMiIcICBBnYA-36" value="time" style="text;html=1;align=center;verticalAlign=middle;resizable=0;points=[];autosize=1;strokeColor=none;fillColor=none;" parent="1" vertex="1">
          <mxGeometry x="725" y="345" width="50" height="30" as="geometry" />
        </mxCell>
        <mxCell id="X-2cT9AtNMiIcICBBnYA-37" value="time" style="text;html=1;align=center;verticalAlign=middle;resizable=0;points=[];autosize=1;strokeColor=none;fillColor=none;" parent="1" vertex="1">
          <mxGeometry x="725" y="505" width="50" height="30" as="geometry" />
        </mxCell>
        <mxCell id="X-2cT9AtNMiIcICBBnYA-38" value="" style="endArrow=classic;html=1;rounded=0;" parent="1" edge="1">
          <mxGeometry width="50" height="50" relative="1" as="geometry">
            <mxPoint x="320" y="640" as="sourcePoint" />
            <mxPoint x="730" y="640" as="targetPoint" />
          </mxGeometry>
        </mxCell>
        <mxCell id="X-2cT9AtNMiIcICBBnYA-54" value="" style="endArrow=none;html=1;rounded=0;" parent="1" edge="1">
          <mxGeometry width="50" height="50" relative="1" as="geometry">
            <mxPoint x="359.92999999999995" y="644" as="sourcePoint" />
            <mxPoint x="359.92999999999995" y="636" as="targetPoint" />
          </mxGeometry>
        </mxCell>
        <mxCell id="X-2cT9AtNMiIcICBBnYA-55" value="" style="endArrow=none;html=1;rounded=0;" parent="1" edge="1">
          <mxGeometry width="50" height="50" relative="1" as="geometry">
            <mxPoint x="439.92999999999995" y="644" as="sourcePoint" />
            <mxPoint x="439.92999999999995" y="636" as="targetPoint" />
          </mxGeometry>
        </mxCell>
        <mxCell id="X-2cT9AtNMiIcICBBnYA-56" value="" style="endArrow=none;html=1;rounded=0;" parent="1" edge="1">
          <mxGeometry width="50" height="50" relative="1" as="geometry">
            <mxPoint x="519.93" y="644" as="sourcePoint" />
            <mxPoint x="519.93" y="636" as="targetPoint" />
          </mxGeometry>
        </mxCell>
        <mxCell id="X-2cT9AtNMiIcICBBnYA-57" value="" style="endArrow=none;html=1;rounded=0;" parent="1" edge="1">
          <mxGeometry width="50" height="50" relative="1" as="geometry">
            <mxPoint x="599.93" y="644" as="sourcePoint" />
            <mxPoint x="599.93" y="636" as="targetPoint" />
          </mxGeometry>
        </mxCell>
        <mxCell id="X-2cT9AtNMiIcICBBnYA-58" value="" style="endArrow=none;html=1;rounded=0;" parent="1" edge="1">
          <mxGeometry width="50" height="50" relative="1" as="geometry">
            <mxPoint x="679.93" y="644" as="sourcePoint" />
            <mxPoint x="679.93" y="636" as="targetPoint" />
          </mxGeometry>
        </mxCell>
        <mxCell id="X-2cT9AtNMiIcICBBnYA-59" value="time" style="text;html=1;align=center;verticalAlign=middle;resizable=0;points=[];autosize=1;strokeColor=none;fillColor=none;" parent="1" vertex="1">
          <mxGeometry x="725" y="625" width="50" height="30" as="geometry" />
        </mxCell>
        <mxCell id="X-2cT9AtNMiIcICBBnYA-72" value="s" style="text;html=1;align=center;verticalAlign=middle;resizable=0;points=[];autosize=1;strokeColor=none;fillColor=none;" parent="1" vertex="1">
          <mxGeometry x="291" y="345" width="30" height="30" as="geometry" />
        </mxCell>
        <mxCell id="X-2cT9AtNMiIcICBBnYA-73" value="cold(s)" style="text;html=1;align=center;verticalAlign=middle;resizable=0;points=[];autosize=1;strokeColor=none;fillColor=none;" parent="1" vertex="1">
          <mxGeometry x="261" y="505" width="60" height="30" as="geometry" />
        </mxCell>
        <mxCell id="X-2cT9AtNMiIcICBBnYA-74" value="cold(s, 3)" style="text;html=1;align=center;verticalAlign=middle;resizable=0;points=[];autosize=1;strokeColor=none;fillColor=none;" parent="1" vertex="1">
          <mxGeometry x="249" y="625" width="70" height="30" as="geometry" />
        </mxCell>
        <mxCell id="U1DE53x9NqK3V2XBDWII-1" value="1" style="rhombus;whiteSpace=wrap;html=1;" vertex="1" parent="1">
          <mxGeometry x="670" y="400" width="20" height="20" as="geometry" />
        </mxCell>
        <mxCell id="U1DE53x9NqK3V2XBDWII-2" value="5" style="rhombus;whiteSpace=wrap;html=1;" vertex="1" parent="1">
          <mxGeometry x="670" y="480" width="20" height="20" as="geometry" />
        </mxCell>
        <mxCell id="U1DE53x9NqK3V2XBDWII-3" value="" style="shape=partialRectangle;whiteSpace=wrap;html=1;bottom=1;right=1;left=1;top=0;fillColor=none;routingCenterX=-0.5;rotation=-180;" vertex="1" parent="1">
          <mxGeometry x="670" y="390" width="20" height="9" as="geometry" />
        </mxCell>
        <mxCell id="U1DE53x9NqK3V2XBDWII-4" value="" style="shape=partialRectangle;whiteSpace=wrap;html=1;bottom=1;right=1;left=1;top=0;fillColor=none;routingCenterX=-0.5;rotation=0;" vertex="1" parent="1">
          <mxGeometry x="670" y="501" width="20" height="9" as="geometry" />
        </mxCell>
        <mxCell id="U1DE53x9NqK3V2XBDWII-5" value="4" style="rhombus;whiteSpace=wrap;html=1;" vertex="1" parent="1">
          <mxGeometry x="670" y="460" width="20" height="20" as="geometry" />
        </mxCell>
        <mxCell id="U1DE53x9NqK3V2XBDWII-6" value="3" style="rhombus;whiteSpace=wrap;html=1;" vertex="1" parent="1">
          <mxGeometry x="670" y="440" width="20" height="20" as="geometry" />
        </mxCell>
        <mxCell id="U1DE53x9NqK3V2XBDWII-7" value="2" style="rhombus;whiteSpace=wrap;html=1;" vertex="1" parent="1">
          <mxGeometry x="670" y="420" width="20" height="20" as="geometry" />
        </mxCell>
        <mxCell id="U1DE53x9NqK3V2XBDWII-8" value="1" style="rhombus;whiteSpace=wrap;html=1;" vertex="1" parent="1">
          <mxGeometry x="590" y="420" width="20" height="20" as="geometry" />
        </mxCell>
        <mxCell id="U1DE53x9NqK3V2XBDWII-10" value="" style="shape=partialRectangle;whiteSpace=wrap;html=1;bottom=1;right=1;left=1;top=0;fillColor=none;routingCenterX=-0.5;rotation=-180;" vertex="1" parent="1">
          <mxGeometry x="590" y="410" width="20" height="9" as="geometry" />
        </mxCell>
        <mxCell id="U1DE53x9NqK3V2XBDWII-11" value="" style="shape=partialRectangle;whiteSpace=wrap;html=1;bottom=1;right=1;left=1;top=0;fillColor=none;routingCenterX=-0.5;rotation=0;" vertex="1" parent="1">
          <mxGeometry x="590" y="501" width="20" height="9" as="geometry" />
        </mxCell>
        <mxCell id="U1DE53x9NqK3V2XBDWII-12" value="4" style="rhombus;whiteSpace=wrap;html=1;" vertex="1" parent="1">
          <mxGeometry x="590" y="480" width="20" height="20" as="geometry" />
        </mxCell>
        <mxCell id="U1DE53x9NqK3V2XBDWII-13" value="3" style="rhombus;whiteSpace=wrap;html=1;" vertex="1" parent="1">
          <mxGeometry x="590" y="460" width="20" height="20" as="geometry" />
        </mxCell>
        <mxCell id="U1DE53x9NqK3V2XBDWII-14" value="2" style="rhombus;whiteSpace=wrap;html=1;" vertex="1" parent="1">
          <mxGeometry x="590" y="440" width="20" height="20" as="geometry" />
        </mxCell>
        <mxCell id="U1DE53x9NqK3V2XBDWII-15" value="1" style="rhombus;whiteSpace=wrap;html=1;" vertex="1" parent="1">
          <mxGeometry x="510" y="439.5" width="20" height="20" as="geometry" />
        </mxCell>
        <mxCell id="U1DE53x9NqK3V2XBDWII-17" value="" style="shape=partialRectangle;whiteSpace=wrap;html=1;bottom=1;right=1;left=1;top=0;fillColor=none;routingCenterX=-0.5;rotation=-180;" vertex="1" parent="1">
          <mxGeometry x="510" y="429.5" width="20" height="9" as="geometry" />
        </mxCell>
        <mxCell id="U1DE53x9NqK3V2XBDWII-18" value="" style="shape=partialRectangle;whiteSpace=wrap;html=1;bottom=1;right=1;left=1;top=0;fillColor=none;routingCenterX=-0.5;rotation=0;" vertex="1" parent="1">
          <mxGeometry x="510" y="501" width="20" height="9" as="geometry" />
        </mxCell>
        <mxCell id="U1DE53x9NqK3V2XBDWII-20" value="3" style="rhombus;whiteSpace=wrap;html=1;" vertex="1" parent="1">
          <mxGeometry x="510" y="479.5" width="20" height="20" as="geometry" />
        </mxCell>
        <mxCell id="U1DE53x9NqK3V2XBDWII-21" value="2" style="rhombus;whiteSpace=wrap;html=1;" vertex="1" parent="1">
          <mxGeometry x="510" y="459.5" width="20" height="20" as="geometry" />
        </mxCell>
        <mxCell id="U1DE53x9NqK3V2XBDWII-22" value="1" style="rhombus;whiteSpace=wrap;html=1;" vertex="1" parent="1">
          <mxGeometry x="430" y="459.5" width="20" height="20" as="geometry" />
        </mxCell>
        <mxCell id="U1DE53x9NqK3V2XBDWII-24" value="" style="shape=partialRectangle;whiteSpace=wrap;html=1;bottom=1;right=1;left=1;top=0;fillColor=none;routingCenterX=-0.5;rotation=-180;" vertex="1" parent="1">
          <mxGeometry x="430" y="449.5" width="20" height="9" as="geometry" />
        </mxCell>
        <mxCell id="U1DE53x9NqK3V2XBDWII-25" value="" style="shape=partialRectangle;whiteSpace=wrap;html=1;bottom=1;right=1;left=1;top=0;fillColor=none;routingCenterX=-0.5;rotation=0;" vertex="1" parent="1">
          <mxGeometry x="430" y="501" width="20" height="9" as="geometry" />
        </mxCell>
        <mxCell id="U1DE53x9NqK3V2XBDWII-28" value="2" style="rhombus;whiteSpace=wrap;html=1;" vertex="1" parent="1">
          <mxGeometry x="430" y="479.5" width="20" height="20" as="geometry" />
        </mxCell>
        <mxCell id="U1DE53x9NqK3V2XBDWII-29" value="1" style="rhombus;whiteSpace=wrap;html=1;" vertex="1" parent="1">
          <mxGeometry x="350" y="480" width="20" height="20" as="geometry" />
        </mxCell>
        <mxCell id="U1DE53x9NqK3V2XBDWII-31" value="" style="shape=partialRectangle;whiteSpace=wrap;html=1;bottom=1;right=1;left=1;top=0;fillColor=none;routingCenterX=-0.5;rotation=-180;" vertex="1" parent="1">
          <mxGeometry x="350" y="470" width="20" height="9" as="geometry" />
        </mxCell>
        <mxCell id="U1DE53x9NqK3V2XBDWII-32" value="" style="shape=partialRectangle;whiteSpace=wrap;html=1;bottom=1;right=1;left=1;top=0;fillColor=none;routingCenterX=-0.5;rotation=0;" vertex="1" parent="1">
          <mxGeometry x="350" y="501" width="20" height="9" as="geometry" />
        </mxCell>
        <mxCell id="U1DE53x9NqK3V2XBDWII-46" value="1" style="rhombus;whiteSpace=wrap;html=1;" vertex="1" parent="1">
          <mxGeometry x="510" y="559.5" width="20" height="20" as="geometry" />
        </mxCell>
        <mxCell id="U1DE53x9NqK3V2XBDWII-47" value="" style="shape=partialRectangle;whiteSpace=wrap;html=1;bottom=1;right=1;left=1;top=0;fillColor=none;routingCenterX=-0.5;rotation=-180;" vertex="1" parent="1">
          <mxGeometry x="510" y="549.5" width="20" height="9" as="geometry" />
        </mxCell>
        <mxCell id="U1DE53x9NqK3V2XBDWII-48" value="" style="shape=partialRectangle;whiteSpace=wrap;html=1;bottom=1;right=1;left=1;top=0;fillColor=none;routingCenterX=-0.5;rotation=0;" vertex="1" parent="1">
          <mxGeometry x="510" y="621" width="20" height="9" as="geometry" />
        </mxCell>
        <mxCell id="U1DE53x9NqK3V2XBDWII-49" value="3" style="rhombus;whiteSpace=wrap;html=1;" vertex="1" parent="1">
          <mxGeometry x="510" y="599.5" width="20" height="20" as="geometry" />
        </mxCell>
        <mxCell id="U1DE53x9NqK3V2XBDWII-50" value="2" style="rhombus;whiteSpace=wrap;html=1;" vertex="1" parent="1">
          <mxGeometry x="510" y="579.5" width="20" height="20" as="geometry" />
        </mxCell>
        <mxCell id="U1DE53x9NqK3V2XBDWII-51" value="2" style="rhombus;whiteSpace=wrap;html=1;" vertex="1" parent="1">
          <mxGeometry x="590" y="559.25" width="20" height="20" as="geometry" />
        </mxCell>
        <mxCell id="U1DE53x9NqK3V2XBDWII-52" value="" style="shape=partialRectangle;whiteSpace=wrap;html=1;bottom=1;right=1;left=1;top=0;fillColor=none;routingCenterX=-0.5;rotation=-180;" vertex="1" parent="1">
          <mxGeometry x="590" y="549.25" width="20" height="9" as="geometry" />
        </mxCell>
        <mxCell id="U1DE53x9NqK3V2XBDWII-53" value="" style="shape=partialRectangle;whiteSpace=wrap;html=1;bottom=1;right=1;left=1;top=0;fillColor=none;routingCenterX=-0.5;rotation=0;" vertex="1" parent="1">
          <mxGeometry x="590" y="620.75" width="20" height="9" as="geometry" />
        </mxCell>
        <mxCell id="U1DE53x9NqK3V2XBDWII-54" value="4" style="rhombus;whiteSpace=wrap;html=1;" vertex="1" parent="1">
          <mxGeometry x="590" y="599.25" width="20" height="20" as="geometry" />
        </mxCell>
        <mxCell id="U1DE53x9NqK3V2XBDWII-55" value="3" style="rhombus;whiteSpace=wrap;html=1;" vertex="1" parent="1">
          <mxGeometry x="590" y="579.25" width="20" height="20" as="geometry" />
        </mxCell>
        <mxCell id="U1DE53x9NqK3V2XBDWII-61" value="3" style="rhombus;whiteSpace=wrap;html=1;" vertex="1" parent="1">
          <mxGeometry x="670" y="559.25" width="20" height="20" as="geometry" />
        </mxCell>
        <mxCell id="U1DE53x9NqK3V2XBDWII-62" value="" style="shape=partialRectangle;whiteSpace=wrap;html=1;bottom=1;right=1;left=1;top=0;fillColor=none;routingCenterX=-0.5;rotation=-180;" vertex="1" parent="1">
          <mxGeometry x="670" y="549.25" width="20" height="9" as="geometry" />
        </mxCell>
        <mxCell id="U1DE53x9NqK3V2XBDWII-63" value="" style="shape=partialRectangle;whiteSpace=wrap;html=1;bottom=1;right=1;left=1;top=0;fillColor=none;routingCenterX=-0.5;rotation=0;" vertex="1" parent="1">
          <mxGeometry x="670" y="620.75" width="20" height="9" as="geometry" />
        </mxCell>
        <mxCell id="U1DE53x9NqK3V2XBDWII-64" value="5" style="rhombus;whiteSpace=wrap;html=1;" vertex="1" parent="1">
          <mxGeometry x="670" y="599.25" width="20" height="20" as="geometry" />
        </mxCell>
        <mxCell id="U1DE53x9NqK3V2XBDWII-65" value="4" style="rhombus;whiteSpace=wrap;html=1;" vertex="1" parent="1">
          <mxGeometry x="670" y="579.25" width="20" height="20" as="geometry" />
        </mxCell>
        <mxCell id="U1DE53x9NqK3V2XBDWII-73" value="1" style="rhombus;whiteSpace=wrap;html=1;" vertex="1" parent="1">
          <mxGeometry x="430" y="579.5" width="20" height="20" as="geometry" />
        </mxCell>
        <mxCell id="U1DE53x9NqK3V2XBDWII-74" value="" style="shape=partialRectangle;whiteSpace=wrap;html=1;bottom=1;right=1;left=1;top=0;fillColor=none;routingCenterX=-0.5;rotation=-180;" vertex="1" parent="1">
          <mxGeometry x="430" y="569.5" width="20" height="9" as="geometry" />
        </mxCell>
        <mxCell id="U1DE53x9NqK3V2XBDWII-75" value="" style="shape=partialRectangle;whiteSpace=wrap;html=1;bottom=1;right=1;left=1;top=0;fillColor=none;routingCenterX=-0.5;rotation=0;" vertex="1" parent="1">
          <mxGeometry x="430" y="621" width="20" height="9" as="geometry" />
        </mxCell>
        <mxCell id="U1DE53x9NqK3V2XBDWII-76" value="2" style="rhombus;whiteSpace=wrap;html=1;" vertex="1" parent="1">
          <mxGeometry x="430" y="599.5" width="20" height="20" as="geometry" />
        </mxCell>
        <mxCell id="U1DE53x9NqK3V2XBDWII-77" value="1" style="rhombus;whiteSpace=wrap;html=1;" vertex="1" parent="1">
          <mxGeometry x="350" y="600" width="20" height="20" as="geometry" />
        </mxCell>
        <mxCell id="U1DE53x9NqK3V2XBDWII-78" value="" style="shape=partialRectangle;whiteSpace=wrap;html=1;bottom=1;right=1;left=1;top=0;fillColor=none;routingCenterX=-0.5;rotation=-180;" vertex="1" parent="1">
          <mxGeometry x="350" y="590" width="20" height="9" as="geometry" />
        </mxCell>
        <mxCell id="U1DE53x9NqK3V2XBDWII-79" value="" style="shape=partialRectangle;whiteSpace=wrap;html=1;bottom=1;right=1;left=1;top=0;fillColor=none;routingCenterX=-0.5;rotation=0;" vertex="1" parent="1">
          <mxGeometry x="350" y="621" width="20" height="9" as="geometry" />
        </mxCell>
      </root>
    </mxGraphModel>
  </diagram>
</mxfile>
